<svg width="353" height="39" viewBox="0 0 353 39" fill="none" xmlns="http://www.w3.org/2000/svg">
<path d="M13.275 0.00599897C16.753 0.00599897 19.7923 0.695332 22.393 2.074C24.9937 3.45267 26.999 5.39533 28.409 7.902C29.8503 10.3773 30.571 13.2443 30.571 16.503C30.571 19.7303 29.8503 22.5973 28.409 25.104C26.999 27.6107 24.978 29.5533 22.346 30.932C19.7453 32.3107 16.7217 33 13.275 33H0.914V0.00599897H13.275ZM12.758 26.044C15.7973 26.044 18.163 25.2137 19.855 23.553C21.547 21.8923 22.393 19.5423 22.393 16.503C22.393 13.4637 21.547 11.098 19.855 9.406C18.163 7.714 15.7973 6.868 12.758 6.868H8.951V26.044H12.758ZM114.85 0.00599897V6.445H101.408V13.401H111.466V19.652H101.408V33H93.371V0.00599897H114.85ZM207.662 0.00599897C211.14 0.00599897 214.179 0.695332 216.78 2.074C219.38 3.45267 221.386 5.39533 222.796 7.902C224.237 10.3773 224.958 13.2443 224.958 16.503C224.958 19.7303 224.237 22.5973 222.796 25.104C221.386 27.6107 219.365 29.5533 216.733 30.932C214.132 32.3107 211.108 33 207.662 33H195.301V0.00599897H207.662ZM207.145 26.044C210.184 26.044 212.55 25.2137 214.242 23.553C215.934 21.8923 216.78 19.5423 216.78 16.503C216.78 13.4637 215.934 11.098 214.242 9.406C212.55 7.714 210.184 6.868 207.145 6.868H203.338V26.044H207.145ZM314.307 0.00599897V6.445H305.565V33H297.528V6.445H288.786V0.00599897H314.307Z" fill="#DC0032"/>
<path d="M44.9084 26.642C44.9084 27.0967 44.8791 27.5073 44.8204 27.874H35.5584C35.6318 28.842 35.9911 29.6193 36.6364 30.206C37.2818 30.7927 38.0738 31.086 39.0124 31.086C40.3618 31.086 41.3151 30.5213 41.8724 29.392H44.5784C44.2118 30.5067 43.5444 31.4233 42.5764 32.142C41.6231 32.846 40.4351 33.198 39.0124 33.198C37.8538 33.198 36.8124 32.9413 35.8884 32.428C34.9791 31.9 34.2604 31.1667 33.7324 30.228C33.2191 29.2747 32.9624 28.1747 32.9624 26.928C32.9624 25.6813 33.2118 24.5887 33.7104 23.65C34.2238 22.6967 34.9351 21.9633 35.8444 21.45C36.7684 20.9367 37.8244 20.68 39.0124 20.68C40.1564 20.68 41.1758 20.9293 42.0704 21.428C42.9651 21.9267 43.6618 22.6307 44.1604 23.54C44.6591 24.4347 44.9084 25.4687 44.9084 26.642ZM42.2904 25.85C42.2758 24.926 41.9458 24.1853 41.3004 23.628C40.6551 23.0707 39.8558 22.792 38.9024 22.792C38.0371 22.792 37.2964 23.0707 36.6804 23.628C36.0644 24.1707 35.6978 24.9113 35.5804 25.85H42.2904ZM53.4926 20.68C54.4459 20.68 55.2966 20.878 56.0446 21.274C56.8072 21.67 57.4012 22.2567 57.8266 23.034C58.2519 23.8113 58.4646 24.75 58.4646 25.85V33H55.9786V26.224C55.9786 25.1387 55.7072 24.31 55.1646 23.738C54.6219 23.1513 53.8812 22.858 52.9426 22.858C52.0039 22.858 51.2559 23.1513 50.6986 23.738C50.1559 24.31 49.8846 25.1387 49.8846 26.224V33H47.3766V20.878H49.8846V22.264C50.2952 21.7653 50.8159 21.3767 51.4466 21.098C52.0919 20.8193 52.7739 20.68 53.4926 20.68ZM66.0637 33.198C65.1103 33.198 64.2523 33.0293 63.4897 32.692C62.7417 32.34 62.1477 31.8707 61.7077 31.284C61.2677 30.6827 61.033 30.0153 61.0037 29.282H63.5997C63.6437 29.7953 63.8857 30.228 64.3257 30.58C64.7803 30.9173 65.345 31.086 66.0197 31.086C66.7237 31.086 67.2663 30.954 67.6477 30.69C68.0437 30.4113 68.2417 30.0593 68.2417 29.634C68.2417 29.1793 68.0217 28.842 67.5817 28.622C67.1563 28.402 66.4743 28.16 65.5357 27.896C64.6263 27.6467 63.8857 27.4047 63.3137 27.17C62.7417 26.9353 62.243 26.576 61.8177 26.092C61.407 25.608 61.2017 24.97 61.2017 24.178C61.2017 23.5327 61.3923 22.946 61.7737 22.418C62.155 21.8753 62.6977 21.45 63.4017 21.142C64.1203 20.834 64.9417 20.68 65.8657 20.68C67.2443 20.68 68.3517 21.032 69.1877 21.736C70.0383 22.4253 70.493 23.3713 70.5517 24.574H68.0437C67.9997 24.0313 67.7797 23.5987 67.3837 23.276C66.9877 22.9533 66.4523 22.792 65.7777 22.792C65.1177 22.792 64.6117 22.9167 64.2597 23.166C63.9077 23.4153 63.7317 23.7453 63.7317 24.156C63.7317 24.4787 63.849 24.75 64.0837 24.97C64.3183 25.19 64.6043 25.366 64.9417 25.498C65.279 25.6153 65.7777 25.7693 66.4377 25.96C67.3177 26.1947 68.0363 26.4367 68.5937 26.686C69.1657 26.9207 69.657 27.2727 70.0677 27.742C70.4783 28.2113 70.691 28.8347 70.7057 29.612C70.7057 30.3013 70.515 30.9173 70.1337 31.46C69.7523 32.0027 69.2097 32.428 68.5057 32.736C67.8163 33.044 67.0023 33.198 66.0637 33.198ZM78.6736 33.198C77.5296 33.198 76.4956 32.9413 75.5716 32.428C74.6476 31.9 73.9216 31.1667 73.3936 30.228C72.8656 29.2747 72.6016 28.1747 72.6016 26.928C72.6016 25.696 72.873 24.6033 73.4156 23.65C73.9583 22.6967 74.699 21.9633 75.6376 21.45C76.5763 20.9367 77.625 20.68 78.7836 20.68C79.9423 20.68 80.991 20.9367 81.9296 21.45C82.8683 21.9633 83.609 22.6967 84.1516 23.65C84.6943 24.6033 84.9656 25.696 84.9656 26.928C84.9656 28.16 84.687 29.2527 84.1296 30.206C83.5723 31.1593 82.8096 31.9 81.8416 32.428C80.8883 32.9413 79.8323 33.198 78.6736 33.198ZM78.6736 31.02C79.319 31.02 79.9203 30.866 80.4776 30.558C81.0496 30.25 81.5116 29.788 81.8636 29.172C82.2156 28.556 82.3916 27.808 82.3916 26.928C82.3916 26.048 82.223 25.3073 81.8856 24.706C81.5483 24.09 81.101 23.628 80.5436 23.32C79.9863 23.012 79.385 22.858 78.7396 22.858C78.0943 22.858 77.493 23.012 76.9356 23.32C76.393 23.628 75.9603 24.09 75.6376 24.706C75.315 25.3073 75.1536 26.048 75.1536 26.928C75.1536 28.2333 75.4836 29.2453 76.1436 29.964C76.8183 30.668 77.6616 31.02 78.6736 31.02ZM116.974 26.884C116.974 25.6667 117.223 24.5887 117.722 23.65C118.235 22.7113 118.925 21.9853 119.79 21.472C120.67 20.944 121.638 20.68 122.694 20.68C123.647 20.68 124.476 20.8707 125.18 21.252C125.899 21.6187 126.471 22.0807 126.896 22.638V20.878H129.426V33H126.896V31.196C126.471 31.768 125.891 32.2447 125.158 32.626C124.425 33.0073 123.589 33.198 122.65 33.198C121.609 33.198 120.655 32.934 119.79 32.406C118.925 31.8633 118.235 31.1153 117.722 30.162C117.223 29.194 116.974 28.1013 116.974 26.884ZM126.896 26.928C126.896 26.092 126.72 25.366 126.368 24.75C126.031 24.134 125.583 23.6647 125.026 23.342C124.469 23.0193 123.867 22.858 123.222 22.858C122.577 22.858 121.975 23.0193 121.418 23.342C120.861 23.65 120.406 24.112 120.054 24.728C119.717 25.3293 119.548 26.048 119.548 26.884C119.548 27.72 119.717 28.4533 120.054 29.084C120.406 29.7147 120.861 30.1987 121.418 30.536C121.99 30.8587 122.591 31.02 123.222 31.02C123.867 31.02 124.469 30.8587 125.026 30.536C125.583 30.2133 126.031 29.744 126.368 29.128C126.72 28.4973 126.896 27.764 126.896 26.928ZM131.884 26.928C131.884 25.6813 132.134 24.5887 132.632 23.65C133.146 22.6967 133.85 21.9633 134.744 21.45C135.639 20.9367 136.666 20.68 137.824 20.68C139.291 20.68 140.501 21.032 141.454 21.736C142.422 22.4253 143.075 23.4153 143.412 24.706H140.706C140.486 24.1047 140.134 23.6353 139.65 23.298C139.166 22.9607 138.558 22.792 137.824 22.792C136.798 22.792 135.976 23.1587 135.36 23.892C134.759 24.6107 134.458 25.6227 134.458 26.928C134.458 28.2333 134.759 29.2527 135.36 29.986C135.976 30.7193 136.798 31.086 137.824 31.086C139.276 31.086 140.237 30.448 140.706 29.172H143.412C143.06 30.404 142.4 31.3867 141.432 32.12C140.464 32.8387 139.262 33.198 137.824 33.198C136.666 33.198 135.639 32.9413 134.744 32.428C133.85 31.9 133.146 31.1667 132.632 30.228C132.134 29.2747 131.884 28.1747 131.884 26.928ZM148.838 22.924V29.634C148.838 30.0887 148.94 30.4187 149.146 30.624C149.366 30.8147 149.732 30.91 150.246 30.91H151.786V33H149.806C148.676 33 147.811 32.736 147.21 32.208C146.608 31.68 146.308 30.822 146.308 29.634V22.924H144.878V20.878H146.308V17.864H148.838V20.878H151.786V22.924H148.838ZM159.355 33.198C158.211 33.198 157.177 32.9413 156.253 32.428C155.329 31.9 154.603 31.1667 154.075 30.228C153.547 29.2747 153.283 28.1747 153.283 26.928C153.283 25.696 153.555 24.6033 154.097 23.65C154.64 22.6967 155.381 21.9633 156.319 21.45C157.258 20.9367 158.307 20.68 159.465 20.68C160.624 20.68 161.673 20.9367 162.611 21.45C163.55 21.9633 164.291 22.6967 164.833 23.65C165.376 24.6033 165.647 25.696 165.647 26.928C165.647 28.16 165.369 29.2527 164.811 30.206C164.254 31.1593 163.491 31.9 162.523 32.428C161.57 32.9413 160.514 33.198 159.355 33.198ZM159.355 31.02C160.001 31.02 160.602 30.866 161.159 30.558C161.731 30.25 162.193 29.788 162.545 29.172C162.897 28.556 163.073 27.808 163.073 26.928C163.073 26.048 162.905 25.3073 162.567 24.706C162.23 24.09 161.783 23.628 161.225 23.32C160.668 23.012 160.067 22.858 159.421 22.858C158.776 22.858 158.175 23.012 157.617 23.32C157.075 23.628 156.642 24.09 156.319 24.706C155.997 25.3073 155.835 26.048 155.835 26.928C155.835 28.2333 156.165 29.2453 156.825 29.964C157.5 30.668 158.343 31.02 159.355 31.02ZM170.635 22.638C171.001 22.022 171.485 21.5453 172.087 21.208C172.703 20.856 173.429 20.68 174.265 20.68V23.276H173.627C172.644 23.276 171.896 23.5253 171.383 24.024C170.884 24.5227 170.635 25.388 170.635 26.62V33H168.127V20.878H170.635V22.638ZM187.482 20.878L180.046 38.698H177.45L179.914 32.802L175.14 20.878H177.934L181.344 30.118L184.886 20.878H187.482ZM229.461 19.272C229.006 19.272 228.625 19.118 228.317 18.81C228.009 18.502 227.855 18.1207 227.855 17.666C227.855 17.2113 228.009 16.83 228.317 16.522C228.625 16.214 229.006 16.06 229.461 16.06C229.901 16.06 230.275 16.214 230.583 16.522C230.891 16.83 231.045 17.2113 231.045 17.666C231.045 18.1207 230.891 18.502 230.583 18.81C230.275 19.118 229.901 19.272 229.461 19.272ZM230.693 20.878V33H228.185V20.878H230.693ZM238.87 20.68C239.809 20.68 240.637 20.8707 241.356 21.252C242.089 21.6187 242.661 22.0807 243.072 22.638V20.878H245.602V33.198C245.602 34.3127 245.367 35.3027 244.898 36.168C244.429 37.048 243.747 37.7373 242.852 38.236C241.972 38.7347 240.916 38.984 239.684 38.984C238.041 38.984 236.677 38.5953 235.592 37.818C234.507 37.0553 233.891 36.014 233.744 34.694H236.23C236.421 35.3247 236.824 35.8307 237.44 36.212C238.071 36.608 238.819 36.806 239.684 36.806C240.696 36.806 241.51 36.498 242.126 35.882C242.757 35.266 243.072 34.3713 243.072 33.198V31.174C242.647 31.746 242.067 32.23 241.334 32.626C240.615 33.0073 239.794 33.198 238.87 33.198C237.814 33.198 236.846 32.934 235.966 32.406C235.101 31.8633 234.411 31.1153 233.898 30.162C233.399 29.194 233.15 28.1013 233.15 26.884C233.15 25.6667 233.399 24.5887 233.898 23.65C234.411 22.7113 235.101 21.9853 235.966 21.472C236.846 20.944 237.814 20.68 238.87 20.68ZM243.072 26.928C243.072 26.092 242.896 25.366 242.544 24.75C242.207 24.134 241.759 23.6647 241.202 23.342C240.645 23.0193 240.043 22.858 239.398 22.858C238.753 22.858 238.151 23.0193 237.594 23.342C237.037 23.65 236.582 24.112 236.23 24.728C235.893 25.3293 235.724 26.048 235.724 26.884C235.724 27.72 235.893 28.4533 236.23 29.084C236.582 29.7147 237.037 30.1987 237.594 30.536C238.166 30.8587 238.767 31.02 239.398 31.02C240.043 31.02 240.645 30.8587 241.202 30.536C241.759 30.2133 242.207 29.744 242.544 29.128C242.896 28.4973 243.072 27.764 243.072 26.928ZM250.172 19.272C249.717 19.272 249.336 19.118 249.028 18.81C248.72 18.502 248.566 18.1207 248.566 17.666C248.566 17.2113 248.72 16.83 249.028 16.522C249.336 16.214 249.717 16.06 250.172 16.06C250.612 16.06 250.986 16.214 251.294 16.522C251.602 16.83 251.756 17.2113 251.756 17.666C251.756 18.1207 251.602 18.502 251.294 18.81C250.986 19.118 250.612 19.272 250.172 19.272ZM251.404 20.878V33H248.896V20.878H251.404ZM257.623 22.924V29.634C257.623 30.0887 257.726 30.4187 257.931 30.624C258.151 30.8147 258.518 30.91 259.031 30.91H260.571V33H258.591C257.462 33 256.596 32.736 255.995 32.208C255.394 31.68 255.093 30.822 255.093 29.634V22.924H253.663V20.878H255.093V17.864H257.623V20.878H260.571V22.924H257.623ZM262.046 26.884C262.046 25.6667 262.296 24.5887 262.794 23.65C263.308 22.7113 263.997 21.9853 264.862 21.472C265.742 20.944 266.71 20.68 267.766 20.68C268.72 20.68 269.548 20.8707 270.252 21.252C270.971 21.6187 271.543 22.0807 271.968 22.638V20.878H274.498V33H271.968V31.196C271.543 31.768 270.964 32.2447 270.23 32.626C269.497 33.0073 268.661 33.198 267.722 33.198C266.681 33.198 265.728 32.934 264.862 32.406C263.997 31.8633 263.308 31.1153 262.794 30.162C262.296 29.194 262.046 28.1013 262.046 26.884ZM271.968 26.928C271.968 26.092 271.792 25.366 271.44 24.75C271.103 24.134 270.656 23.6647 270.098 23.342C269.541 23.0193 268.94 22.858 268.294 22.858C267.649 22.858 267.048 23.0193 266.49 23.342C265.933 23.65 265.478 24.112 265.126 24.728C264.789 25.3293 264.62 26.048 264.62 26.884C264.62 27.72 264.789 28.4533 265.126 29.084C265.478 29.7147 265.933 30.1987 266.49 30.536C267.062 30.8587 267.664 31.02 268.294 31.02C268.94 31.02 269.541 30.8587 270.098 30.536C270.656 30.2133 271.103 29.744 271.44 29.128C271.792 28.4973 271.968 27.764 271.968 26.928ZM280.301 16.72V33H277.793V16.72H280.301ZM333.357 20.878L329.595 33H326.955L324.513 24.046L322.071 33H319.431L315.647 20.878H318.199L320.729 30.624L323.303 20.878H325.921L328.385 30.58L330.893 20.878H333.357ZM336.507 19.272C336.052 19.272 335.671 19.118 335.363 18.81C335.055 18.502 334.901 18.1207 334.901 17.666C334.901 17.2113 335.055 16.83 335.363 16.522C335.671 16.214 336.052 16.06 336.507 16.06C336.947 16.06 337.321 16.214 337.629 16.522C337.937 16.83 338.091 17.2113 338.091 17.666C338.091 18.1207 337.937 18.502 337.629 18.81C337.321 19.118 336.947 19.272 336.507 19.272ZM337.739 20.878V33H335.231V20.878H337.739ZM347.148 20.68C348.101 20.68 348.952 20.878 349.7 21.274C350.463 21.67 351.057 22.2567 351.482 23.034C351.907 23.8113 352.12 24.75 352.12 25.85V33H349.634V26.224C349.634 25.1387 349.363 24.31 348.82 23.738C348.277 23.1513 347.537 22.858 346.598 22.858C345.659 22.858 344.911 23.1513 344.354 23.738C343.811 24.31 343.54 25.1387 343.54 26.224V33H341.032V20.878H343.54V22.264C343.951 21.7653 344.471 21.3767 345.102 21.098C345.747 20.8193 346.429 20.68 347.148 20.68Z" fill="#171922"/>
</svg>
