<svg width="172" height="249" viewBox="0 0 172 249" fill="none" xmlns="http://www.w3.org/2000/svg">
<path d="M84.892 212.184H82.5V223H78.054V212.184H76.442V208.492H78.054V208.076C78.054 206.291 78.5653 204.939 79.588 204.02C80.6107 203.084 82.11 202.616 84.086 202.616C84.4153 202.616 84.658 202.625 84.814 202.642V206.412C83.9647 206.36 83.3667 206.481 83.02 206.776C82.6733 207.071 82.5 207.599 82.5 208.362V208.492H84.892V212.184ZM103.744 215.746C103.744 214.238 104.047 212.921 104.654 211.794C105.278 210.667 106.136 209.801 107.228 209.194C108.337 208.587 109.602 208.284 111.024 208.284C112.844 208.284 114.36 208.761 115.574 209.714C116.804 210.667 117.61 212.011 117.992 213.744H113.26C112.861 212.635 112.09 212.08 110.946 212.08C110.131 212.08 109.481 212.401 108.996 213.042C108.51 213.666 108.268 214.567 108.268 215.746C108.268 216.925 108.51 217.835 108.996 218.476C109.481 219.1 110.131 219.412 110.946 219.412C112.09 219.412 112.861 218.857 113.26 217.748H117.992C117.61 219.447 116.804 220.781 115.574 221.752C114.343 222.723 112.826 223.208 111.024 223.208C109.602 223.208 108.337 222.905 107.228 222.298C106.136 221.691 105.278 220.825 104.654 219.698C104.047 218.571 103.744 217.254 103.744 215.746ZM128.456 219.23V223H126.194C124.582 223 123.325 222.61 122.424 221.83C121.522 221.033 121.072 219.741 121.072 217.956V212.184H119.304V208.492H121.072V204.956H125.518V208.492H128.43V212.184H125.518V218.008C125.518 218.441 125.622 218.753 125.83 218.944C126.038 219.135 126.384 219.23 126.87 219.23H128.456ZM137.536 223.208C136.115 223.208 134.832 222.905 133.688 222.298C132.562 221.691 131.669 220.825 131.01 219.698C130.369 218.571 130.048 217.254 130.048 215.746C130.048 214.255 130.378 212.947 131.036 211.82C131.695 210.676 132.596 209.801 133.74 209.194C134.884 208.587 136.167 208.284 137.588 208.284C139.01 208.284 140.292 208.587 141.436 209.194C142.58 209.801 143.482 210.676 144.14 211.82C144.799 212.947 145.128 214.255 145.128 215.746C145.128 217.237 144.79 218.554 144.114 219.698C143.456 220.825 142.546 221.691 141.384 222.298C140.24 222.905 138.958 223.208 137.536 223.208ZM137.536 219.36C138.386 219.36 139.105 219.048 139.694 218.424C140.301 217.8 140.604 216.907 140.604 215.746C140.604 214.585 140.31 213.692 139.72 213.068C139.148 212.444 138.438 212.132 137.588 212.132C136.722 212.132 136.002 212.444 135.43 213.068C134.858 213.675 134.572 214.567 134.572 215.746C134.572 216.907 134.85 217.8 135.404 218.424C135.976 219.048 136.687 219.36 137.536 219.36ZM154.271 215.72C154.271 214.229 154.548 212.921 155.103 211.794C155.675 210.667 156.446 209.801 157.417 209.194C158.388 208.587 159.471 208.284 160.667 208.284C161.62 208.284 162.487 208.483 163.267 208.882C164.064 209.281 164.688 209.818 165.139 210.494V203.76H169.585V223H165.139V220.92C164.723 221.613 164.125 222.168 163.345 222.584C162.582 223 161.69 223.208 160.667 223.208C159.471 223.208 158.388 222.905 157.417 222.298C156.446 221.674 155.675 220.799 155.103 219.672C154.548 218.528 154.271 217.211 154.271 215.72ZM165.139 215.746C165.139 214.637 164.827 213.761 164.203 213.12C163.596 212.479 162.851 212.158 161.967 212.158C161.083 212.158 160.329 212.479 159.705 213.12C159.098 213.744 158.795 214.611 158.795 215.72C158.795 216.829 159.098 217.713 159.705 218.372C160.329 219.013 161.083 219.334 161.967 219.334C162.851 219.334 163.596 219.013 164.203 218.372C164.827 217.731 165.139 216.855 165.139 215.746Z" fill="#171922"/>
<path d="M86.0971 215.72C86.0971 214.229 86.3745 212.921 86.9291 211.794C87.5011 210.667 88.2725 209.801 89.2431 209.194C90.2138 208.587 91.2971 208.284 92.4931 208.284C93.5158 208.284 94.4085 208.492 95.1711 208.908C95.9511 209.324 96.5491 209.87 96.9651 210.546V208.492H101.411V223H96.9651V220.946C96.5318 221.622 95.9251 222.168 95.1451 222.584C94.3825 223 93.4898 223.208 92.4671 223.208C91.2885 223.208 90.2138 222.905 89.2431 222.298C88.2725 221.674 87.5011 220.799 86.9291 219.672C86.3745 218.528 86.0971 217.211 86.0971 215.72ZM96.9651 215.746C96.9651 214.637 96.6531 213.761 96.0291 213.12C95.4225 212.479 94.6771 212.158 93.7931 212.158C92.9091 212.158 92.1551 212.479 91.5311 213.12C90.9245 213.744 90.6211 214.611 90.6211 215.72C90.6211 216.829 90.9245 217.713 91.5311 218.372C92.1551 219.013 92.9091 219.334 93.7931 219.334C94.6771 219.334 95.4225 219.013 96.0291 218.372C96.6531 217.731 96.9651 216.855 96.9651 215.746ZM149.723 206.984C148.943 206.984 148.302 206.759 147.799 206.308C147.314 205.84 147.071 205.268 147.071 204.592C147.071 203.899 147.314 203.327 147.799 202.876C148.302 202.408 148.943 202.174 149.723 202.174C150.486 202.174 151.11 202.408 151.595 202.876C152.098 203.327 152.349 203.899 152.349 204.592C152.349 205.268 152.098 205.84 151.595 206.308C151.11 206.759 150.486 206.984 149.723 206.984ZM151.933 208.492V223H147.487V208.492H151.933Z" fill="#00C839"/>
<path d="M17.072 195.168H18.432V190.896H18.464C19.056 191.872 20.304 192.192 21.136 192.192C23.664 192.192 24.912 190.24 24.912 187.888C24.912 185.552 23.648 183.536 21.104 183.536C19.952 183.536 18.912 183.936 18.464 184.848H18.432V183.728H17.072V195.168ZM23.472 187.792C23.472 189.408 22.848 190.992 20.992 190.992C19.12 190.992 18.384 189.472 18.384 187.856C18.384 186.32 19.072 184.736 20.912 184.736C22.672 184.736 23.472 186.24 23.472 187.792ZM27.5004 187.872C27.5004 185.872 28.6524 184.736 30.0764 184.736C31.5004 184.736 32.6524 185.872 32.6524 187.872C32.6524 189.872 31.5004 190.992 30.0764 190.992C28.6524 190.992 27.5004 189.872 27.5004 187.872ZM26.0604 187.872C26.0604 190.288 27.4524 192.192 30.0764 192.192C32.7004 192.192 34.0924 190.288 34.0924 187.872C34.0924 185.44 32.7004 183.536 30.0764 183.536C27.4524 183.536 26.0604 185.44 26.0604 187.872ZM46.5279 183.728H45.1199L43.2639 190.496H43.2319L41.5039 183.728H40.0159L38.3519 190.496H38.3199L36.4479 183.728H34.9439L37.5999 192H39.0719L40.7359 185.424H40.7679L42.4479 192H43.8879L46.5279 183.728ZM48.8129 187.072C48.8929 185.792 49.7729 184.736 51.1809 184.736C52.5409 184.736 53.4849 185.776 53.5649 187.072H48.8129ZM53.5329 189.376C53.2929 190.464 52.5249 190.992 51.3889 190.992C49.5809 190.992 48.7649 189.712 48.8129 188.272H55.0049C55.0849 186.272 54.1889 183.536 51.2609 183.536C49.0049 183.536 47.3729 185.344 47.3729 187.84C47.4529 190.352 48.7009 192.192 51.3409 192.192C53.2129 192.192 54.5089 191.216 54.8769 189.376H53.5329ZM56.3666 192H57.7266V188.32C57.7266 186.208 58.5266 184.976 60.7186 184.976V183.536C59.2466 183.488 58.3346 184.128 57.6786 185.472H57.6466V183.728H56.3666V192ZM62.7348 187.072C62.8148 185.792 63.6948 184.736 65.1028 184.736C66.4628 184.736 67.4068 185.776 67.4868 187.072H62.7348ZM67.4548 189.376C67.2148 190.464 66.4468 190.992 65.3108 190.992C63.5028 190.992 62.6868 189.712 62.7348 188.272H68.9268C69.0068 186.272 68.1108 183.536 65.1828 183.536C62.9268 183.536 61.2948 185.344 61.2948 187.84C61.3748 190.352 62.6228 192.192 65.2628 192.192C67.1348 192.192 68.4308 191.216 68.7987 189.376H67.4548ZM71.3285 187.936C71.3285 186.32 71.9525 184.736 73.8085 184.736C75.6805 184.736 76.4165 186.256 76.4165 187.872C76.4165 189.408 75.7285 190.992 73.8885 190.992C72.1285 190.992 71.3285 189.488 71.3285 187.936ZM77.7285 180.576H76.3685V184.832H76.3365C75.7445 183.856 74.4965 183.536 73.6645 183.536C71.1365 183.536 69.8885 185.504 69.8885 187.84C69.8885 190.176 71.1525 192.192 73.6965 192.192C74.8485 192.192 75.8885 191.792 76.3365 190.88H76.3685V192H77.7285V180.576ZM84.322 192H85.682V190.896H85.714C86.306 191.872 87.554 192.192 88.386 192.192C90.914 192.192 92.162 190.24 92.162 187.888C92.162 185.552 90.898 183.536 88.354 183.536C87.202 183.536 86.162 183.936 85.714 184.848H85.682V180.576H84.322V192ZM90.722 187.792C90.722 189.408 90.098 190.992 88.242 190.992C86.37 190.992 85.634 189.472 85.634 187.856C85.634 186.32 86.322 184.736 88.162 184.736C89.922 184.736 90.722 186.24 90.722 187.792ZM100.606 183.728H99.1664L96.8464 190.496H96.8144L94.3984 183.728H92.8624L96.1424 191.952L95.5824 193.36C95.3264 193.856 95.0224 194.112 94.4624 194.112C94.1904 194.112 93.9184 194 93.6624 193.92V195.168C93.9664 195.28 94.2864 195.312 94.6064 195.312C95.8224 195.312 96.3664 194.704 97.0064 193.104L100.606 183.728Z" fill="#748094"/>
<rect x="16.3696" y="100.804" width="71.1964" height="71.1964" fill="#141E4F"/>
<rect x="100.626" y="16.8511" width="71.1964" height="71.1964" fill="#141E4F"/>
<rect x="50.3433" width="71.1964" height="71.1964" transform="rotate(45 50.3433 0)" fill="#DC0032"/>
<rect x="100.626" y="100.804" width="71.1964" height="71.1964" fill="#141E4F"/>
<path d="M37.8516 67.3696H51.7636C62.1036 67.3696 66.5686 59.8496 66.5686 50.5906C66.5686 41.3316 62.1036 33.8116 51.7636 33.8116H37.8516V67.3696ZM43.7266 38.6056H49.5076C58.7196 38.6056 60.6936 43.8226 60.6936 50.5906C60.6936 57.3586 58.7196 62.5756 49.5076 62.5756H43.7266V38.6056Z" fill="white"/>
<path d="M41.64 152.107H47.515V137.208H62.696V132.414H47.515V123.625H64.811V118.549H41.64V152.107Z" fill="white"/>
<path d="M122.626 152.107H136.538C146.878 152.107 151.343 144.587 151.343 135.328C151.343 126.069 146.878 118.549 136.538 118.549H122.626V152.107ZM128.501 123.343H134.282C143.494 123.343 145.468 128.56 145.468 135.328C145.468 142.096 143.494 147.313 134.282 147.313H128.501V123.343Z" fill="white"/>
<path d="M122.701 38.8876H133.323V67.3696H139.198V38.8876H149.867V33.8116H122.701V38.8876Z" fill="white"/>
</svg>
