<svg width="188" height="71" viewBox="0 0 188 71" fill="none" xmlns="http://www.w3.org/2000/svg">
<path d="M100.892 34.184H98.5V45H94.054V34.184H92.442V30.492H94.054V30.076C94.054 28.2907 94.5653 26.9387 95.588 26.02C96.6107 25.084 98.11 24.616 100.086 24.616C100.415 24.616 100.658 24.6247 100.814 24.642V28.412C99.9647 28.36 99.3667 28.4813 99.02 28.776C98.6733 29.0707 98.5 29.5993 98.5 30.362V30.492H100.892V34.184ZM119.744 37.746C119.744 36.238 120.047 34.9207 120.654 33.794C121.278 32.6673 122.136 31.8007 123.228 31.194C124.337 30.5873 125.602 30.284 127.024 30.284C128.844 30.284 130.36 30.7607 131.574 31.714C132.804 32.6673 133.61 34.0107 133.992 35.744H129.26C128.861 34.6347 128.09 34.08 126.946 34.08C126.131 34.08 125.481 34.4007 124.996 35.042C124.51 35.666 124.268 36.5673 124.268 37.746C124.268 38.9247 124.51 39.8347 124.996 40.476C125.481 41.1 126.131 41.412 126.946 41.412C128.09 41.412 128.861 40.8573 129.26 39.748H133.992C133.61 41.4467 132.804 42.7813 131.574 43.752C130.343 44.7227 128.826 45.208 127.024 45.208C125.602 45.208 124.337 44.9047 123.228 44.298C122.136 43.6913 121.278 42.8247 120.654 41.698C120.047 40.5713 119.744 39.254 119.744 37.746ZM144.456 41.23V45H142.194C140.582 45 139.325 44.61 138.424 43.83C137.522 43.0327 137.072 41.7413 137.072 39.956V34.184H135.304V30.492H137.072V26.956H141.518V30.492H144.43V34.184H141.518V40.008C141.518 40.4413 141.622 40.7533 141.83 40.944C142.038 41.1347 142.384 41.23 142.87 41.23H144.456ZM153.536 45.208C152.115 45.208 150.832 44.9047 149.688 44.298C148.562 43.6913 147.669 42.8247 147.01 41.698C146.369 40.5713 146.048 39.254 146.048 37.746C146.048 36.2553 146.378 34.9467 147.036 33.82C147.695 32.676 148.596 31.8007 149.74 31.194C150.884 30.5873 152.167 30.284 153.588 30.284C155.01 30.284 156.292 30.5873 157.436 31.194C158.58 31.8007 159.482 32.676 160.14 33.82C160.799 34.9467 161.128 36.2553 161.128 37.746C161.128 39.2367 160.79 40.554 160.114 41.698C159.456 42.8247 158.546 43.6913 157.384 44.298C156.24 44.9047 154.958 45.208 153.536 45.208ZM153.536 41.36C154.386 41.36 155.105 41.048 155.694 40.424C156.301 39.8 156.604 38.9073 156.604 37.746C156.604 36.5847 156.31 35.692 155.72 35.068C155.148 34.444 154.438 34.132 153.588 34.132C152.722 34.132 152.002 34.444 151.43 35.068C150.858 35.6747 150.572 36.5673 150.572 37.746C150.572 38.9073 150.85 39.8 151.404 40.424C151.976 41.048 152.687 41.36 153.536 41.36ZM170.271 37.72C170.271 36.2293 170.548 34.9207 171.103 33.794C171.675 32.6673 172.446 31.8007 173.417 31.194C174.388 30.5873 175.471 30.284 176.667 30.284C177.62 30.284 178.487 30.4833 179.267 30.882C180.064 31.2807 180.688 31.818 181.139 32.494V25.76H185.585V45H181.139V42.92C180.723 43.6133 180.125 44.168 179.345 44.584C178.582 45 177.69 45.208 176.667 45.208C175.471 45.208 174.388 44.9047 173.417 44.298C172.446 43.674 171.675 42.7987 171.103 41.672C170.548 40.528 170.271 39.2107 170.271 37.72ZM181.139 37.746C181.139 36.6367 180.827 35.7613 180.203 35.12C179.596 34.4787 178.851 34.158 177.967 34.158C177.083 34.158 176.329 34.4787 175.705 35.12C175.098 35.744 174.795 36.6107 174.795 37.72C174.795 38.8293 175.098 39.7133 175.705 40.372C176.329 41.0133 177.083 41.334 177.967 41.334C178.851 41.334 179.596 41.0133 180.203 40.372C180.827 39.7307 181.139 38.8553 181.139 37.746Z" fill="#171922"/>
<path d="M102.097 37.72C102.097 36.2293 102.374 34.9207 102.929 33.794C103.501 32.6673 104.272 31.8007 105.243 31.194C106.214 30.5873 107.297 30.284 108.493 30.284C109.516 30.284 110.408 30.492 111.171 30.908C111.951 31.324 112.549 31.87 112.965 32.546V30.492H117.411V45H112.965V42.946C112.532 43.622 111.925 44.168 111.145 44.584C110.382 45 109.49 45.208 108.467 45.208C107.288 45.208 106.214 44.9047 105.243 44.298C104.272 43.674 103.501 42.7987 102.929 41.672C102.374 40.528 102.097 39.2107 102.097 37.72ZM112.965 37.746C112.965 36.6367 112.653 35.7613 112.029 35.12C111.422 34.4787 110.677 34.158 109.793 34.158C108.909 34.158 108.155 34.4787 107.531 35.12C106.924 35.744 106.621 36.6107 106.621 37.72C106.621 38.8293 106.924 39.7133 107.531 40.372C108.155 41.0133 108.909 41.334 109.793 41.334C110.677 41.334 111.422 41.0133 112.029 40.372C112.653 39.7307 112.965 38.8553 112.965 37.746ZM165.723 28.984C164.943 28.984 164.302 28.7587 163.799 28.308C163.314 27.84 163.071 27.268 163.071 26.592C163.071 25.8987 163.314 25.3267 163.799 24.876C164.302 24.408 164.943 24.174 165.723 24.174C166.486 24.174 167.11 24.408 167.595 24.876C168.098 25.3267 168.349 25.8987 168.349 26.592C168.349 27.268 168.098 27.84 167.595 28.308C167.11 28.7587 166.486 28.984 165.723 28.984ZM167.933 30.492V45H163.487V30.492H167.933Z" fill="#00C839"/>
<path d="M1.072 40.168H2.432V35.896H2.464C3.056 36.872 4.304 37.192 5.136 37.192C7.664 37.192 8.912 35.24 8.912 32.888C8.912 30.552 7.648 28.536 5.104 28.536C3.952 28.536 2.912 28.936 2.464 29.848H2.432V28.728H1.072V40.168ZM7.472 32.792C7.472 34.408 6.848 35.992 4.992 35.992C3.12 35.992 2.384 34.472 2.384 32.856C2.384 31.32 3.072 29.736 4.912 29.736C6.672 29.736 7.472 31.24 7.472 32.792ZM11.5004 32.872C11.5004 30.872 12.6524 29.736 14.0764 29.736C15.5004 29.736 16.6524 30.872 16.6524 32.872C16.6524 34.872 15.5004 35.992 14.0764 35.992C12.6524 35.992 11.5004 34.872 11.5004 32.872ZM10.0604 32.872C10.0604 35.288 11.4524 37.192 14.0764 37.192C16.7004 37.192 18.0924 35.288 18.0924 32.872C18.0924 30.44 16.7004 28.536 14.0764 28.536C11.4524 28.536 10.0604 30.44 10.0604 32.872ZM30.5279 28.728H29.1199L27.2639 35.496H27.2319L25.5039 28.728H24.0159L22.3519 35.496H22.3199L20.4479 28.728H18.9439L21.5999 37H23.0719L24.7359 30.424H24.7679L26.4479 37H27.8879L30.5279 28.728ZM32.8129 32.072C32.8929 30.792 33.7729 29.736 35.1809 29.736C36.5409 29.736 37.4849 30.776 37.5649 32.072H32.8129ZM37.5329 34.376C37.2929 35.464 36.5249 35.992 35.3889 35.992C33.5809 35.992 32.7649 34.712 32.8129 33.272H39.0049C39.0849 31.272 38.1889 28.536 35.2609 28.536C33.0049 28.536 31.3729 30.344 31.3729 32.84C31.4529 35.352 32.7009 37.192 35.3409 37.192C37.2129 37.192 38.5089 36.216 38.8769 34.376H37.5329ZM40.3666 37H41.7266V33.32C41.7266 31.208 42.5266 29.976 44.7186 29.976V28.536C43.2466 28.488 42.3346 29.128 41.6786 30.472H41.6466V28.728H40.3666V37ZM46.7348 32.072C46.8148 30.792 47.6948 29.736 49.1028 29.736C50.4628 29.736 51.4068 30.776 51.4868 32.072H46.7348ZM51.4548 34.376C51.2148 35.464 50.4468 35.992 49.3108 35.992C47.5028 35.992 46.6868 34.712 46.7348 33.272H52.9268C53.0068 31.272 52.1108 28.536 49.1828 28.536C46.9268 28.536 45.2948 30.344 45.2948 32.84C45.3748 35.352 46.6228 37.192 49.2628 37.192C51.1348 37.192 52.4308 36.216 52.7987 34.376H51.4548ZM55.3285 32.936C55.3285 31.32 55.9525 29.736 57.8085 29.736C59.6805 29.736 60.4165 31.256 60.4165 32.872C60.4165 34.408 59.7285 35.992 57.8885 35.992C56.1285 35.992 55.3285 34.488 55.3285 32.936ZM61.7285 25.576H60.3685V29.832H60.3365C59.7445 28.856 58.4965 28.536 57.6645 28.536C55.1365 28.536 53.8885 30.504 53.8885 32.84C53.8885 35.176 55.1525 37.192 57.6965 37.192C58.8485 37.192 59.8885 36.792 60.3365 35.88H60.3685V37H61.7285V25.576ZM68.322 37H69.682V35.896H69.714C70.306 36.872 71.554 37.192 72.386 37.192C74.914 37.192 76.162 35.24 76.162 32.888C76.162 30.552 74.898 28.536 72.354 28.536C71.202 28.536 70.162 28.936 69.714 29.848H69.682V25.576H68.322V37ZM74.722 32.792C74.722 34.408 74.098 35.992 72.242 35.992C70.37 35.992 69.634 34.472 69.634 32.856C69.634 31.32 70.322 29.736 72.162 29.736C73.922 29.736 74.722 31.24 74.722 32.792ZM84.6064 28.728H83.1664L80.8464 35.496H80.8144L78.3984 28.728H76.8624L80.1424 36.952L79.5824 38.36C79.3264 38.856 79.0224 39.112 78.4624 39.112C78.1904 39.112 77.9184 39 77.6624 38.92V40.168C77.9664 40.28 78.2864 40.312 78.6064 40.312C79.8224 40.312 80.3664 39.704 81.0064 38.104L84.6064 28.728Z" fill="#748094"/>
</svg>
